<svg width="49" height="48" viewBox="0 0 49 48" fill="none" xmlns="http://www.w3.org/2000/svg">
<rect x="0.898438" y="0.5" width="47" height="47" rx="23.5" stroke="black" stroke-opacity="0.4"/>
<path d="M37.8456 15.731V13.7991H35.3942V15.731H34.1544V13.7991H31.703V15.731H30.1503V19.1083C30.1503 20.8046 31.5922 22.2363 33.5486 22.6662V31.0102C33.5486 34.337 30.1575 37.0436 25.9892 37.0436C22.2019 37.0436 19.0565 34.8092 18.5131 31.9054C22.1959 31.407 25.0096 28.8429 25.0096 25.7637V9H9.39844V25.7636C9.39844 28.8842 12.2884 31.4761 16.0443 31.9245C16.6145 35.9011 20.8566 39 25.9892 39C31.5092 39 36.0001 35.4158 36.0001 31.0102V22.6662C37.9566 22.2364 39.3984 20.8046 39.3984 19.1083V15.731H37.8456ZM11.8499 10.9565H12.6883V11.9579H15.1397V10.9565H15.9783V11.9579H18.4297V10.9565H19.2682V11.9579H21.7196V10.9565H22.5581V13.3553H11.8499V10.9565ZM11.8499 25.7636V15.3119H22.5582V25.7637C22.5582 28.1199 20.1563 30.0369 17.2041 30.0369C14.2519 30.0369 11.8499 28.1199 11.8499 25.7636ZM36.947 19.1083C36.947 20.0644 35.9723 20.8423 34.7742 20.8423C33.5763 20.8423 32.6016 20.0644 32.6016 19.1083V17.6875H36.9469L36.947 19.1083Z" fill="black" fill-opacity="0.4"/>
</svg>
