<svg width="49" height="48" viewBox="0 0 49 48" fill="none" xmlns="http://www.w3.org/2000/svg">
<rect x="1.29688" y="0.5" width="47" height="47" rx="23.5" stroke="black" stroke-opacity="0.4"/>
<path d="M9.51278 29.6488L17.5483 23.6203L20.4333 22.5483L22.1004 21.0446L26.6541 18.383C26.1828 17.524 26.1204 16.5242 26.4024 15.5527C26.7597 14.3247 27.6627 13.151 28.9783 12.3793C31.3434 10.9947 34.1398 11.4488 35.2277 13.3945C35.7094 14.2559 35.769 15.2636 35.4869 16.2428C35.1308 17.4696 34.2265 18.6472 32.9135 19.4162C32.3341 19.7557 31.7308 19.9836 31.1335 20.1033C31.1283 20.1034 31.1231 20.1035 31.1178 20.1089C31.0682 20.115 31.0185 20.1264 30.9637 20.1327C27.2441 20.7576 25.3288 21.8405 24.3935 22.5995C25.301 23.3211 27.1753 24.3297 30.8733 24.8091C30.9253 24.8133 30.9772 24.8227 31.0253 24.8257C31.0304 24.8308 31.0343 24.8294 31.0382 24.8332C31.6325 24.9309 32.2273 25.1353 32.7939 25.4497C34.0776 26.1704 34.9365 27.3108 35.2472 28.5271C35.4926 29.4921 35.3907 30.5056 34.8735 31.3879C34.8573 31.4195 34.8359 31.4459 34.8171 31.4749C35.6006 32.346 36.6709 33.9952 36.6483 36.4716C36.6483 36.4716 36.6482 36.4768 36.6495 36.4807C36.6357 37.0485 36.1709 37.5185 35.6043 37.5361C35.0325 37.5538 34.5726 37.1046 34.5786 36.5343C34.5981 34.6763 33.7899 33.4724 33.247 32.8765C31.8945 33.5396 30.1273 33.5091 28.5821 32.649C27.2957 31.9283 26.4394 30.7879 26.1287 29.5716C25.8846 28.6131 25.9863 27.6074 26.4916 26.7344L22.0389 24.2443C21.0263 24.7666 17.9771 26.5825 17.9771 26.5825C17.9771 26.5825 11.6245 29.2351 10.4946 29.8977C9.13768 30.2563 9.51278 29.6488 9.51278 29.6488ZM31.8545 17.526C32.6011 17.0909 33.1704 16.4093 33.3729 15.7063C33.4636 15.396 33.5246 14.9418 33.2945 14.5259C32.8002 13.6438 31.3068 13.5286 30.0347 14.2722C29.2801 14.7152 28.7229 15.377 28.5163 16.0919C28.4256 16.3996 28.3671 16.8589 28.5973 17.2723C29.0902 18.1556 30.585 18.2721 31.8545 17.526ZM28.264 28.953C28.4455 29.6576 28.9744 30.3008 29.7135 30.7132C30.9587 31.4087 32.4539 31.2336 32.9846 30.3302C33.2337 29.9074 33.1892 29.454 33.1119 29.1483C32.9329 28.4514 32.3912 27.7929 31.6624 27.3855C30.4173 26.69 28.9194 26.8652 28.3901 27.7673C28.1462 28.1899 28.188 28.6486 28.264 28.953Z" fill="#030104" fill-opacity="0.4"/>
<path d="M16.983 21.3624L9.09828 15.3207C9.09828 15.3207 8.64861 14.4859 10.0883 15.2882C10.8634 15.7234 17.7768 18.4595 17.7768 18.4595C17.7768 18.4595 20.4692 19.9012 21.4195 20.3629L19.7537 21.8678L16.983 21.3624Z" fill="#030104" fill-opacity="0.4"/>
</svg>
