<svg width="48" height="48" viewBox="0 0 48 48" fill="none" xmlns="http://www.w3.org/2000/svg">
<rect x="0.5" y="0.5" width="47" height="47" rx="23.5" stroke="black" stroke-opacity="0.4"/>
<g clip-path="url(#clip0_1186_1443)">
<path d="M38.96 33.8919L37.4015 28.3054C37.2624 27.8067 36.8036 27.4656 36.2859 27.4752C33.4448 27.5297 37.5299 27.494 30.7663 27.5448C30.2093 27.549 29.7335 27.1902 29.5616 26.6911L28.336 23.1154L30.3785 26.1393C30.5546 26.3999 30.8485 26.5559 31.1627 26.5559C31.1651 26.5559 31.1675 26.5559 31.1698 26.5559L34.9505 26.5273C35.4731 26.5234 35.8936 26.0966 35.8897 25.5739C35.8858 25.0537 35.4628 24.6347 34.9436 24.6347C34.9412 24.6347 34.9387 24.6347 34.9363 24.6347L31.6629 24.6594L29.9044 22.0559L31.7744 23.6726L32.0748 23.6703L31.0766 20.888C30.8135 20.1545 30.0055 19.7732 29.272 20.0364L28.0667 20.4689C27.6287 21.0299 26.9378 21.9168 26.2344 22.8266L29.0689 29.1242C29.2952 29.6268 29.8269 29.793 30.3812 29.8156C30.6053 29.8247 32.7262 29.8165 35.45 29.7627L36.7722 34.5022C36.9408 35.1066 37.5673 35.4594 38.1712 35.2908C38.7754 35.1224 39.1285 34.496 38.96 33.8919Z" fill="black" fill-opacity="0.4"/>
<path d="M37.4239 36.434H34.0394V32.4207L34.6742 32.4174C35.2172 32.4146 35.6552 31.9721 35.6523 31.4291C35.6495 30.8878 35.2099 30.4509 34.6692 30.4509C34.6675 30.4509 34.6657 30.4509 34.664 30.4509L28.9079 30.4809L25.7349 23.4677C25.3102 24.0192 24.9175 24.5756 24.2891 25.0428L27.3792 31.8728C27.5385 32.2248 27.889 32.4508 28.275 32.4508C28.2767 32.4508 28.2785 32.4508 28.2802 32.4508L29.7317 32.4432V36.4341H26.3472C25.8042 36.4341 25.364 36.8743 25.364 37.4173C25.364 37.9603 25.8042 38.4006 26.3472 38.4006H37.4239C37.967 38.4006 38.4072 37.9604 38.4072 37.4173C38.4072 36.8742 37.967 36.434 37.4239 36.434Z" fill="black" fill-opacity="0.4"/>
<path d="M15.856 14.2958C17.1529 14.2958 18.2042 13.2445 18.2042 11.9476C18.2042 10.6507 17.1529 9.59937 15.856 9.59937C14.5591 9.59937 13.5078 10.6507 13.5078 11.9476C13.5078 13.2445 14.5591 14.2958 15.856 14.2958Z" fill="black" fill-opacity="0.4"/>
<path d="M16.3925 25.9918L16.5786 23.7277C15.9214 23.4955 14.3401 22.9369 13.7152 22.7161C13.3195 22.5763 13.0454 22.2437 12.9602 21.8622L12.1851 18.343L13.8225 21.4005C13.9568 21.6514 14.18 21.843 14.4484 21.9378L19.2338 23.6283C19.8283 23.8382 20.48 23.5265 20.6899 22.9324C20.8998 22.338 20.5883 21.6862 19.994 21.4763L15.6257 19.9331L14.1971 17.2655L15.8398 18.9713L16.9377 19.3591L16.9588 19.1017L18.7353 19.8989C18.9939 20.0149 19.2876 20.031 19.559 19.9417L21.9194 19.1654C22.4024 17.7992 23.037 16.8469 23.6838 16.1835C23.6783 16.1852 23.6726 16.1862 23.6671 16.188L19.2662 17.6355L17.0278 16.6311C16.8192 15.9933 16.2452 15.5103 15.5346 15.4519L12.4803 15.2008C11.5344 15.1231 10.7046 15.8268 10.6268 16.7727L10.0841 25.5749L10.8039 30.2681L9.04909 36.6686C8.84908 37.398 9.2783 38.1515 10.0077 38.3514C10.7366 38.5514 11.4904 38.1225 11.6904 37.3928L13.5224 30.7109C13.5733 30.5254 13.5845 30.3313 13.5553 30.1412L12.8904 25.8056L13.4231 25.8494L15.0567 30.3034L13.692 36.7471C13.5353 37.4871 14.0081 38.2139 14.748 38.3706C15.4884 38.5273 16.2148 38.054 16.3714 37.3146L17.8177 30.4854C17.871 30.2336 17.8523 29.9718 17.7637 29.7301L16.3925 25.9918Z" fill="black" fill-opacity="0.4"/>
<path d="M24.7479 23.4712C26.1531 21.6388 27.916 19.3881 27.916 19.3881V19.3881C28.8805 18.9331 29.3543 17.8133 28.9888 16.7947C28.6413 15.826 27.649 15.2702 26.665 15.4425C26.6638 15.4426 24.4715 15.5344 23.0458 18.4931L23.0454 18.4922C23.0454 18.4922 23.0448 18.494 23.044 18.4967C22.8217 18.9587 22.6178 19.4899 22.4441 20.1021C22.2138 20.6481 21.927 21.2594 21.6003 21.8121C21.7681 22.2617 21.7853 22.7704 21.6129 23.2582C21.2231 24.3619 20.0123 24.9404 18.9087 24.5506L18.3404 24.3499C16.9386 25.744 17.8546 27.9943 18.4535 28.8552C18.4535 28.8552 18.1701 26.7978 19.4925 26.1499C20.0993 25.8526 20.9164 25.6938 21.7787 25.412C24.1138 24.649 24.5822 23.6037 24.7479 23.4712Z" fill="black" fill-opacity="0.4"/>
</g>
<defs>
<clipPath id="clip0_1186_1443">
<rect width="30" height="30" fill="white" transform="translate(9 9)"/>
</clipPath>
</defs>
</svg>
