<svg width="49" height="48" viewBox="0 0 49 48" fill="none" xmlns="http://www.w3.org/2000/svg">
<rect x="0.695312" y="0.5" width="47" height="47" rx="23.5" stroke="black" stroke-opacity="0.4"/>
<path d="M29.5286 32.75H28.8619V15.25H29.5286C29.8966 15.25 30.1953 14.97 30.1953 14.625C30.1953 12.9025 28.6993 11.5 26.862 11.5C26.862 10.1213 25.666 9 24.1953 9C22.7246 9 21.5286 10.1213 21.5286 11.5C19.6913 11.5 18.1953 12.9025 18.1953 14.625C18.1953 14.97 18.494 15.25 18.862 15.25H19.5287V32.75H18.862C18.494 32.75 18.1953 33.0301 18.1953 33.3751C18.1953 35.0975 19.6913 36.5 21.5286 36.5C21.5286 37.8788 22.7246 39 24.1953 39C25.666 39 26.862 37.8787 26.862 36.5C28.6993 36.5 30.1953 35.0975 30.1953 33.375C30.1953 33.03 29.8966 32.75 29.5286 32.75ZM24.1953 10.25C24.93 10.25 25.5286 10.8113 25.5286 11.5H22.8619C22.862 10.8113 23.4606 10.25 24.1953 10.25ZM21.5273 12.75H26.8606C27.7299 12.75 28.4713 13.2725 28.7473 14H19.642C19.918 13.2725 20.6593 12.75 21.5273 12.75ZM21.0393 26.435C21.5633 26.3937 22.082 26.3312 22.5913 26.2362C22.662 26.2238 22.73 26.2037 22.8006 26.19C23.2619 26.0975 23.7153 25.98 24.1619 25.845C24.2726 25.8113 24.3846 25.78 24.4939 25.7438C24.9793 25.5837 25.4539 25.4 25.9139 25.1887C26.0019 25.1487 26.0859 25.1037 26.1726 25.0613C26.5819 24.8637 26.9779 24.6488 27.3606 24.4125C27.4139 24.38 27.4726 24.3562 27.5246 24.3225V26.51C27.4833 26.5437 27.4366 26.5763 27.3899 26.6087C26.9673 26.9162 26.5286 27.2024 26.0646 27.4525C26.0366 27.4675 26.0073 27.4799 25.9793 27.4949C25.518 27.7387 25.0366 27.9512 24.5406 28.1387C24.4793 28.1624 24.4193 28.1887 24.3566 28.2112C23.8633 28.3887 23.3526 28.5312 22.8339 28.6487C22.7379 28.67 22.6432 28.6925 22.5472 28.7125C22.0339 28.8162 21.5113 28.8925 20.9819 28.9362C20.9419 28.94 20.9019 28.9412 20.8606 28.9437V26.4575C20.9206 26.4537 20.9793 26.44 21.0393 26.435ZM20.8606 25.1937V22.7112C23.2739 22.5487 25.5806 21.8112 27.5273 20.5775V22.76C27.4833 22.7937 27.4366 22.8263 27.39 22.8587C26.9673 23.1662 26.5287 23.4524 26.0647 23.7025C26.0367 23.7175 26.0074 23.7299 25.9794 23.7449C25.5181 23.9887 25.0367 24.2012 24.5407 24.3887C24.4794 24.4124 24.4194 24.4387 24.3567 24.4612C23.8634 24.6387 23.3527 24.7812 22.834 24.8987C22.738 24.92 22.6433 24.9425 22.5473 24.9625C22.034 25.0662 21.5113 25.1425 20.982 25.1862C20.942 25.19 20.902 25.1913 20.8606 25.1937ZM20.862 30.2063C20.922 30.2025 20.9807 30.1887 21.0407 30.1838C21.5647 30.1425 22.0834 30.08 22.5927 29.985C22.6634 29.9725 22.7314 29.9525 22.802 29.9388C23.2633 29.8463 23.7167 29.7288 24.1633 29.5938C24.274 29.56 24.386 29.5288 24.4953 29.4925C24.9806 29.3325 25.4553 29.1488 25.9153 28.9375C26.0033 28.8975 26.0873 28.8525 26.174 28.81C26.5833 28.6125 26.9793 28.3975 27.362 28.1613C27.4153 28.1287 27.474 28.105 27.526 28.0713V30.2713C25.6607 31.6713 23.3247 32.5213 20.862 32.7025V30.2063ZM27.5286 31.8125V32.75H25.7886C26.3953 32.48 26.974 32.1637 27.5286 31.8125ZM27.2166 19.235C26.9419 19.4275 26.6579 19.6088 26.3646 19.7775C26.1286 19.9137 25.8859 20.0412 25.6393 20.1625C25.374 20.2925 25.1033 20.4138 24.8273 20.5263C24.5686 20.6313 24.3073 20.73 24.042 20.8175C23.722 20.9238 23.3953 21.0163 23.0647 21.0976C22.83 21.155 22.594 21.2088 22.3554 21.2538C21.9647 21.3276 21.5687 21.3838 21.1701 21.4226C21.0674 21.4338 20.9648 21.4351 20.8621 21.4426V18.9713C23.2754 18.8101 25.5834 18.0676 27.5287 16.8363V19.0101C27.426 19.0863 27.322 19.1613 27.2166 19.235ZM20.862 17.7075V15.25H27.5287V15.275C25.6606 16.6762 23.3273 17.5263 20.862 17.7075ZM24.1953 37.75C23.4606 37.75 22.862 37.1888 22.862 36.5H25.5287C25.5286 37.1888 24.93 37.75 24.1953 37.75ZM26.862 35.25H21.5287C20.6594 35.25 19.918 34.7275 19.642 34H28.7487C28.4726 34.7275 27.7313 35.25 26.862 35.25Z" fill="black" fill-opacity="0.4"/>
</svg>
