<svg width="49" height="48" viewBox="0 0 49 48" fill="none" xmlns="http://www.w3.org/2000/svg">
<rect x="1.09375" y="0.5" width="47" height="47" rx="23.5" stroke="black" stroke-opacity="0.4"/>
<path d="M19.5938 12.4505C19.5938 12.4505 19.684 12.8508 19.8343 13.7087C19.951 14.372 23.2782 17.9408 23.2782 22.2872L24.0679 39H25.1204L25.909 22.2872C25.9089 17.8645 29.216 14.3316 29.3532 13.7086C29.534 12.8889 29.5938 12.4504 29.5938 12.4504L19.5938 12.4505Z" fill="black" fill-opacity="0.4"/>
<path d="M20.5312 12.8316H20.3056L20.0312 9H20.806L20.5312 12.8316Z" fill="black" fill-opacity="0.4"/>
<path d="M24.7191 12.8316H24.4938L24.2188 9H24.9942L24.7191 12.8316Z" fill="black" fill-opacity="0.4"/>
<path d="M28.9065 12.8316H28.6812L28.4062 9H29.181L28.9065 12.8316Z" fill="black" fill-opacity="0.4"/>
<path d="M21.5156 12.8316H21.2901L21.0156 9H21.7903L21.5156 12.8316Z" fill="black" fill-opacity="0.4"/>
<path d="M25.7113 12.8316H25.4859L25.2109 9H25.9859L25.7113 12.8316Z" fill="black" fill-opacity="0.4"/>
<path d="M23.6252 12.8316H23.3996L23.125 9H23.9L23.6252 12.8316Z" fill="black" fill-opacity="0.4"/>
<path d="M27.8124 12.8316H27.5873L27.3125 9H28.0875L27.8124 12.8316Z" fill="black" fill-opacity="0.4"/>
<path d="M22.6092 12.8316H22.3839L22.1094 9H22.8841L22.6092 12.8316Z" fill="black" fill-opacity="0.4"/>
<path d="M26.7969 12.8316H26.5715L26.2969 9H27.072L26.7969 12.8316Z" fill="black" fill-opacity="0.4"/>
</svg>
