<svg width="49" height="48" viewBox="0 0 49 48" fill="none" xmlns="http://www.w3.org/2000/svg">
<rect x="1.29688" y="0.5" width="47" height="47" rx="23.5" stroke="black" stroke-opacity="0.4"/>
<path d="M25.1419 35.1093H21.9328L22.3472 37.4702H25.4888L26.4975 39H15.1434L16.1522 37.4702H19.1053L19.5197 35.1093H16.2469V33.1027H23.5444L25.1334 25.8425L27.0741 26.2776L25.1503 35.0571L25.1409 35.0552L25.1419 35.1093ZM22.5872 21.875C24.2597 21.875 25.6153 20.5045 25.6153 18.8145C25.6153 17.1237 24.2597 15.7531 22.5872 15.7531C20.9147 15.7531 19.5591 17.1237 19.5591 18.8145C19.5591 20.5035 20.9147 21.875 22.5872 21.875ZM16.6022 32.336H18.2972H20.9784H22.7822C22.7822 32.336 24.3656 24.5033 24.5409 23.6389C24.7163 22.7745 24.6431 22.3565 24.075 22.3537C23.5078 22.3489 21.2362 22.3537 21.2362 22.3537V22.3546L21.2316 22.3527C21.2316 22.3527 18.7762 27.5875 16.5984 27.4472C15.4144 27.4661 15.4481 28.6898 17.8472 28.7703C18.3994 28.7893 18.9525 28.485 19.4794 28.013L19.0678 29.52C17.5303 29.5162 15.5569 29.5257 15.1116 29.5883C14.4919 29.6755 11.6709 34.3074 10.6978 35.9319H9.79688V37.3148H14.2022V35.9329H14.1309L16.6022 32.336ZM36.5859 15.6896C38.3597 15.6896 39.7969 14.1921 39.7969 12.3448C39.7969 10.4975 38.3597 9 36.5859 9C34.8122 9 33.375 10.4975 33.375 12.3448C33.375 14.1921 34.8131 15.6896 36.5859 15.6896ZM38.6972 17.1256C39.9909 18.189 39.0572 24.8729 38.8237 26.8415C38.7488 27.469 38.3166 27.7704 37.7494 27.8841V37.4428V38.6086V38.9308H32.9353V37.4428H34.3509L33.8644 32.3824L34.4137 27.2368C34.1475 27.0055 34.4466 20.06 34.4738 19.369C34.4916 18.915 31.9491 19.2316 30.2025 19.5036L30.7959 22.1641L28.3041 22.7337L26.8406 16.1853L27.1406 16.1171L27.0206 15.5778L27.1678 15.5437L27.1294 15.3655L27.6 15.2593L27.5484 15.0262C27.4837 15.0205 27.4312 14.9702 27.4312 14.9077C27.4312 14.8622 27.4594 14.829 27.4978 14.8082L27.4388 14.538L28.2225 14.3599L28.3847 15.083L28.7991 14.9873L28.8375 15.1636L28.9744 15.1342L29.0953 15.6707L29.3362 15.6166L29.8369 17.8582C31.8478 17.7502 33.5438 17.3653 34.5169 16.9891C35.52 16.7047 37.5366 16.1711 38.6972 17.1256ZM28.8412 22.1954L27.5709 16.5028L27.255 16.5739L28.5244 22.2674L28.8412 22.1954ZM28.3359 22.8674L28.4259 23.2692L30.9178 22.6968L30.8278 22.2949L28.3359 22.8674ZM25.8516 15.4148L25.8244 15.2896L23.9606 15.6953L23.9869 15.8204L25.8516 15.4148ZM27.1256 14.8764L27.1163 14.7494L24.5494 14.939L24.5588 15.066L27.1256 14.8764ZM25.0312 16.3389L27.1959 15.1835L27.1378 15.0717L24.9722 16.227L25.0312 16.3389Z" fill="black" fill-opacity="0.4"/>
</svg>
