<svg width="49" height="48" viewBox="0 0 49 48" fill="none" xmlns="http://www.w3.org/2000/svg">
<rect x="1.09375" y="0.5" width="47" height="47" rx="23.5" stroke="black" stroke-opacity="0.4"/>
<path d="M35.7472 15.7054C37.8685 15.7054 39.5882 14.2043 39.5882 12.3527C39.5882 10.5011 37.8685 9 35.7472 9C33.6259 9 31.9062 10.5011 31.9062 12.3527C31.9062 14.2043 33.6259 15.7054 35.7472 15.7054Z" fill="black" fill-opacity="0.4"/>
<path d="M38.2824 17.1459C36.895 16.1899 34.0532 17.0785 33.3996 17.0224C32.747 16.9671 28.1438 13.8769 28.1438 13.8769L27.8433 14.1203C27.7852 13.3305 27.6942 12.0428 27.4024 11.2308C27.0076 10.139 26.8563 10.061 26.5086 10.0847C26.1598 10.1112 25.0547 10.3946 25.0547 10.3946L25.0804 10.5126C25.0804 10.5126 25.9656 10.4355 26.3236 10.4044C26.3505 10.4016 26.3806 10.4198 26.4103 10.4527L25.1556 10.6905L25.1791 10.7955L26.5139 10.6305C26.5259 10.6523 26.537 10.6793 26.5468 10.7048L25.2444 10.9511L25.2691 11.0561L26.6138 10.8884C26.6225 10.9144 26.6313 10.9427 26.639 10.9701L25.3305 11.2187L25.3541 11.3232L26.7004 11.1597C26.7092 11.1931 26.718 11.2243 26.7256 11.2587L25.3754 11.5156L25.399 11.6192L26.7727 11.4357C26.7804 11.4729 26.7914 11.5101 26.7979 11.5459L25.4429 11.8028L25.4654 11.9077L26.8408 11.7298C26.8485 11.7628 26.8561 11.7972 26.8638 11.8306L25.5082 12.0884L25.5317 12.192L26.9011 12.0066C26.9076 12.0397 26.9142 12.0731 26.9198 12.1065L25.5723 12.3634L25.5959 12.468L26.9559 12.2947C26.9636 12.3365 26.9724 12.3802 26.9801 12.4225L25.6453 12.6752L25.6677 12.7792L27.0096 12.6162C27.0141 12.6534 27.0218 12.6896 27.0251 12.7239L25.7127 12.9729L25.7363 13.0779L27.0513 12.913C27.0557 12.9455 27.0601 12.978 27.0622 13.0101L25.7248 13.2651L25.7483 13.3687L27.0842 13.2177C27.0864 13.2516 27.0897 13.2851 27.0897 13.3167L25.7483 13.5708L25.773 13.6744L27.0908 13.5108C27.0854 13.5693 27.0744 13.6037 27.0579 13.6093C26.8736 13.6609 25.8016 13.8723 25.8016 13.8723C25.8016 13.8723 25.806 13.9178 25.8148 13.9713C26.1114 14.0103 26.8924 14.0911 27.0086 14.5153C27.0273 14.5821 27.0393 14.6713 27.0481 14.774L26.5226 15.2005C26.5226 15.2005 26.7256 15.3269 27.0557 15.5354C27.037 16.2662 26.9735 17.1223 27.0315 17.4122C27.1225 17.8713 28.398 17.6952 28.5166 17.0879C28.5462 16.9481 28.499 16.6949 28.4244 16.4087C30.3833 17.6779 33.1539 19.5538 33.1307 20.0011C33.0989 20.6947 32.8467 27.0479 33.1658 27.2793L32.5088 32.4367L33.0901 37.5088H31.3956V39H37.1558V38.6776V37.5078V27.9278C37.8348 27.8163 38.3503 27.5124 38.4402 26.8844C38.7112 24.9119 39.8288 18.2116 38.2824 17.1459ZM27.7347 17.2867C27.6076 17.3076 27.4858 17.2384 27.4617 17.1306C27.4364 17.0232 27.5198 16.9197 27.6459 16.8983C27.7732 16.8788 27.8949 16.9489 27.919 17.0563C27.9431 17.1622 27.8598 17.2658 27.7347 17.2867Z" fill="black" fill-opacity="0.4"/>
<path d="M21.4564 10.0837C23.1235 10.0837 24.4753 11.2284 24.4753 12.6412C24.4753 14.0534 23.1235 15.1985 21.4564 15.1985C19.7893 15.1985 18.4375 14.0534 18.4375 12.6412C18.4374 11.2284 19.7893 10.0837 21.4564 10.0837Z" fill="black" fill-opacity="0.4"/>
<path d="M24.4789 27.0526L24.4887 27.0544L26.7908 18.2534L24.4701 17.8176L24.2846 18.5266C24.4048 21.097 24.2249 24.7168 22.9916 25.4322C22.2671 25.8531 20.7739 26.0658 18.5501 26.0658C17.1786 26.0658 15.5379 25.9803 13.8395 25.8279V27.1091H17.7884L17.212 37.1454H13.7227L12.5156 38.6794H26.1003L24.8933 37.1454H21.179L20.6039 27.1083H24.4778V27.0526H24.4789Z" fill="black" fill-opacity="0.4"/>
<path d="M11.1471 25.1396C11.2371 25.1554 11.3258 25.1702 11.4245 25.1832C12.0344 25.2603 12.6656 25.331 13.3039 25.3932C13.3094 25.3932 13.3149 25.3951 13.3203 25.3951C13.8912 25.4508 14.4648 25.5 15.0357 25.5409C15.0499 25.5419 15.0637 25.5437 15.0779 25.5456C15.4376 25.5707 15.7946 25.5921 16.1483 25.6116C16.2048 25.6143 16.2618 25.6171 16.3166 25.6209C16.6841 25.6404 17.0482 25.6543 17.403 25.6664C17.4375 25.6664 17.4726 25.6664 17.5071 25.6682C17.8115 25.6756 18.1081 25.6803 18.3999 25.6813C18.447 25.6813 18.4964 25.6831 18.5442 25.6831C18.6122 25.6831 18.6763 25.6821 18.7438 25.6813C18.8539 25.6803 18.9625 25.6794 19.0695 25.6775C19.2022 25.6757 19.3322 25.6719 19.4616 25.6682C19.5648 25.6645 19.6684 25.6607 19.7682 25.6561C19.8915 25.6505 20.0116 25.6431 20.1318 25.6366C20.2288 25.631 20.3264 25.6255 20.4197 25.617C20.5365 25.6077 20.6451 25.5976 20.7553 25.5864C20.843 25.5781 20.933 25.5697 21.0157 25.5604C21.1227 25.5473 21.2213 25.5325 21.3201 25.5177C21.3974 25.5065 21.4786 25.4954 21.5527 25.4823C21.6492 25.4656 21.7369 25.4452 21.8268 25.4247C21.892 25.4108 21.9606 25.3987 22.0209 25.382C22.113 25.3597 22.1942 25.3309 22.2759 25.3058C22.322 25.2891 22.3736 25.276 22.4152 25.2603C22.5331 25.2166 22.6389 25.1683 22.7295 25.1163C22.7777 25.0884 22.8249 25.0531 22.8698 25.0113C22.8857 24.9974 22.8983 24.9807 22.9137 24.9648C22.9416 24.9342 22.9724 24.9044 22.9992 24.8691C23.0162 24.8487 23.0305 24.8227 23.0464 24.8004C23.0699 24.767 23.0946 24.7316 23.1171 24.6926C23.1341 24.6657 23.1472 24.6369 23.1632 24.6081C23.1857 24.5682 23.206 24.5273 23.2262 24.4827C23.2416 24.452 23.2542 24.4196 23.2685 24.3861C23.2888 24.3397 23.3068 24.2923 23.3261 24.243C23.3381 24.2091 23.3508 24.1743 23.3628 24.138C23.382 24.0846 23.3979 24.0302 23.416 23.973C23.427 23.9382 23.4374 23.9029 23.4472 23.8657C23.4653 23.804 23.4812 23.7394 23.4966 23.6752C23.5059 23.6404 23.5146 23.606 23.5223 23.5697C23.5393 23.4964 23.554 23.4216 23.5706 23.3444C23.5766 23.3146 23.5832 23.2845 23.5886 23.2538C23.6079 23.1595 23.6237 23.0647 23.639 22.9667C23.6412 22.9504 23.6451 22.936 23.6473 22.9197C23.7416 22.3242 23.7986 21.6604 23.8277 20.9825C23.8277 20.9788 23.8277 20.9751 23.8277 20.9723C23.8349 20.8399 23.8393 20.7071 23.8426 20.5747C23.8426 20.57 23.8426 20.5654 23.8426 20.5612C23.8469 20.4269 23.8492 20.2941 23.8513 20.1617C23.8513 20.1599 23.8513 20.1589 23.8513 20.1589C23.865 19.1332 23.8212 18.1372 23.7493 17.3711C23.7493 17.3702 23.7493 17.3702 23.7493 17.3702C23.7493 17.3674 23.7493 17.3656 23.7493 17.3628C23.7405 17.2773 23.7323 17.1942 23.7246 17.1142C23.7235 17.104 23.7224 17.0933 23.7213 17.0831C23.7109 17.0013 23.7022 16.9224 23.6933 16.848C23.6933 16.8424 23.6922 16.8355 23.6906 16.8308C23.6495 16.513 23.6034 16.2636 23.5552 16.1135C22.4545 15.5389 20.1925 15.8603 19.3611 15.8584C18.6652 16.1371 18.0247 21.4396 15.0507 21.2398C11.4728 20.8782 7.25689 24.4632 11.1471 25.1396Z" fill="black" fill-opacity="0.4"/>
<path d="M11.3636 25.5623C11.1831 25.54 11.0191 25.5084 10.8661 25.4768C10.4148 26.012 10.1094 26.3874 10.1094 26.3874C10.1094 26.7776 10.6441 26.8835 11.3164 26.8835C11.9015 26.8835 12.3902 26.6437 12.5091 26.325L13.0158 25.748C12.4652 25.6932 11.913 25.631 11.3636 25.5623Z" fill="black" fill-opacity="0.4"/>
</svg>
