<svg width="49" height="48" viewBox="0 0 49 48" fill="none" xmlns="http://www.w3.org/2000/svg">
<rect x="0.898438" y="0.5" width="47" height="47" rx="23.5" stroke="black" stroke-opacity="0.4"/>
<path d="M28.0916 11.0728C26.4917 11.0583 25.0204 12.2136 24.4551 13.7736C23.8852 12.2 22.3928 11.0398 20.7766 11.0745C19.8912 11.0936 18.969 11.4709 18.1399 12.3362C17.4678 13.0374 17.0932 13.964 16.7098 14.8996C15.8309 16.2174 14.6551 17.2006 12.9506 17.5876C13.3608 17.961 13.8079 18.1553 14.2781 18.2358C13.4466 18.6945 12.3104 18.9479 10.6875 18.8674C11.8903 20.41 13.7721 20.9347 15.743 20.8908C19.3005 20.7537 21.1013 18.9381 22.1554 17.0895L23.1056 17.6315C21.9111 19.7265 19.6398 21.8217 15.6478 21.973C15.6477 21.987 15.6478 22.0011 15.6478 22.0151C15.6478 22.3706 15.7252 22.8003 15.8638 23.2858L15.8491 23.2584L17.5777 29.9893L17.8487 27.7261C18.8503 29.5695 20.0559 31.5225 21.1611 33.2322L21.2562 30.5294C21.5978 32.7861 22.4679 34.8317 23.545 36.7972C24.0921 37.5886 24.4386 38.0734 24.4386 38.0734C24.4386 38.0734 24.846 37.5054 25.4859 36.5756C25.49 36.5697 25.4948 36.5631 25.4988 36.5572C26.7152 34.6343 27.7287 32.6165 28.2198 30.3518L28.1575 32.5454C28.7049 31.6861 29.2663 30.7825 29.8073 29.8703V31.5383L32.1823 25.4373C32.761 24.1725 33.1498 23.0606 33.2168 22.2532C29.3664 21.7893 26.7008 19.8004 25.464 17.6316L26.4144 17.0896C27.5688 19.1141 30.3132 21.1284 34.5186 21.2534C35.4025 21.2358 36.2709 21.0411 37.1901 20.5905C36.3216 20.5974 35.5801 20.5272 34.9325 20.3891C36.3001 20.0882 37.4858 19.405 38.2211 18.1643C32.2129 19.41 32.9275 14.5889 30.7686 12.3361C29.9266 11.4576 28.9891 11.0808 28.0917 11.0727L28.0916 11.0728Z" fill="black" fill-opacity="0.4"/>
</svg>
