<svg width="49" height="48" viewBox="0 0 49 48" fill="none" xmlns="http://www.w3.org/2000/svg">
<rect x="0.695312" y="0.5" width="47" height="47" rx="23.5" stroke="black" stroke-opacity="0.4"/>
<path d="M35.7222 16.3557C37.6398 16.3557 39.1943 14.8963 39.1943 13.096C39.1943 11.2957 37.6398 9.8363 35.7222 9.8363C33.8045 9.8363 32.25 11.2957 32.25 13.096C32.25 14.8963 33.8045 16.3557 35.7222 16.3557Z" fill="black" fill-opacity="0.4"/>
<path d="M38.0002 17.7544C36.7454 16.8254 34.5641 17.3438 33.4801 17.6204C32.2644 18.0441 29.94 17.3982 26.8271 16.561C26.8559 16.4597 26.8755 16.3576 26.8755 16.2544C26.8755 15.586 26.3001 15.0366 25.5527 14.9898C25.3901 14.4394 24.8352 14.0494 24.1939 14.0494C23.7225 14.0494 23.2839 14.266 23.0235 14.6204C22.8804 14.5773 22.7301 14.5548 22.5778 14.5548C21.8006 14.5548 21.1675 15.1238 21.1675 15.8241C21.1675 16.1513 21.3075 16.4494 21.537 16.6744C20.4768 17.1666 19.75 18.1707 19.75 19.3285C19.75 20.9766 21.2159 22.3126 23.0255 22.3126C24.8332 22.3126 26.3011 20.9766 26.3011 19.3285C26.3011 19.2582 26.2949 19.1907 26.2887 19.1213C26.3454 19.1279 26.3989 19.1372 26.4555 19.1372C26.9784 19.1372 27.4283 18.8776 27.6743 18.4969C29.9441 18.8551 33.4544 19.4832 33.4359 19.9388C33.407 20.6119 33.0828 27.3807 33.371 27.6038L32.7781 32.6175L33.3031 37.5497H31.7713V39H36.9801V38.685V37.5497V28.2329C37.5926 28.1251 38.0599 27.8288 38.1412 27.2204C38.3904 25.3041 39.3992 18.7894 38.0002 17.7544ZM21.4413 15.8251C21.4413 15.2616 21.9519 14.8032 22.5778 14.8032C22.7332 14.8032 22.8845 14.8313 23.0276 14.8866L23.1408 14.9326L23.2005 14.8341C23.4002 14.5032 23.7811 14.2979 24.1939 14.2979C24.7426 14.2979 25.211 14.6504 25.3098 15.1341L25.354 15.2335H25.4683C26.0932 15.2335 26.6048 15.691 26.6048 16.2554C26.6048 16.3351 26.5904 16.4147 26.5698 16.4926C26.3134 16.4241 26.0551 16.3557 25.7905 16.2844V17.7347C25.2099 16.9013 24.1898 16.3482 23.0266 16.3482C22.5932 16.3482 22.1804 16.4251 21.8026 16.5638C21.5803 16.3791 21.4413 16.1166 21.4413 15.8251ZM26.4555 18.8907C26.3886 18.8907 26.3227 18.8794 26.2579 18.8691C26.2218 18.6572 26.1621 18.4538 26.0798 18.2588C26.3587 18.2982 26.823 18.3676 27.3871 18.4538C27.1812 18.7172 26.8415 18.8907 26.4555 18.8907Z" fill="black" fill-opacity="0.4"/>
<path d="M26.3486 14.2087C26.6534 14.2087 26.9004 13.9838 26.9004 13.7062C26.9004 13.4287 26.6534 13.2037 26.3486 13.2037C26.0439 13.2037 25.7969 13.4287 25.7969 13.7062C25.7969 13.9838 26.0439 14.2087 26.3486 14.2087Z" fill="black" fill-opacity="0.4"/>
<path d="M23.9668 13.095C24.2721 13.095 24.5196 12.8696 24.5196 12.5916C24.5196 12.3135 24.2721 12.0881 23.9668 12.0881C23.6616 12.0881 23.4141 12.3135 23.4141 12.5916C23.4141 12.8696 23.6616 13.095 23.9668 13.095Z" fill="black" fill-opacity="0.4"/>
<path d="M25.1962 11.7469C25.3736 11.7469 25.5173 11.6159 25.5173 11.4544C25.5173 11.2928 25.3736 11.1619 25.1962 11.1619C25.0188 11.1619 24.875 11.2928 24.875 11.4544C24.875 11.6159 25.0188 11.7469 25.1962 11.7469Z" fill="black" fill-opacity="0.4"/>
<path d="M25.98 12.7631C26.1846 12.7631 26.3505 12.612 26.3505 12.4256C26.3505 12.2392 26.1846 12.0881 25.98 12.0881C25.7753 12.0881 25.6094 12.2392 25.6094 12.4256C25.6094 12.612 25.7753 12.7631 25.98 12.7631Z" fill="black" fill-opacity="0.4"/>
<path d="M26.048 10.8141C26.1868 10.8141 26.2992 10.7117 26.2992 10.5853C26.2992 10.459 26.1868 10.3566 26.048 10.3566C25.9093 10.3566 25.7969 10.459 25.7969 10.5853C25.7969 10.7117 25.9093 10.8141 26.048 10.8141Z" fill="black" fill-opacity="0.4"/>
<path d="M24.1251 9.45562C24.2633 9.45562 24.3753 9.35363 24.3753 9.22781C24.3753 9.102 24.2633 9 24.1251 9C23.987 9 23.875 9.102 23.875 9.22781C23.875 9.35363 23.987 9.45562 24.1251 9.45562Z" fill="black" fill-opacity="0.4"/>
<path d="M25.7935 35.1525L25.8028 35.1543L27.8832 26.5997L25.8903 26.1965C25.9911 29.3147 25.8058 33.6047 24.6673 34.4362C23.9601 34.9528 22.4953 35.2115 20.314 35.2115C19.0983 35.2115 17.6674 35.1281 16.1727 34.9734V35.2059H19.7118L19.262 37.5075H16.0688L14.9766 39H27.2594L26.1672 37.5084H22.7701L22.3203 35.2078H25.7925L25.7935 35.1525Z" fill="black" fill-opacity="0.4"/>
<path d="M11.8347 33.5615C11.8388 33.5671 11.847 33.5727 11.8522 33.5784C11.9139 33.6449 11.985 33.7087 12.0652 33.7668C12.0735 33.7715 12.0807 33.7799 12.0889 33.7856C12.1795 33.8474 12.2814 33.9065 12.3967 33.9609C12.4152 33.9693 12.4379 33.9787 12.4564 33.9852C12.5532 34.0256 12.6572 34.064 12.7714 34.0987C12.8074 34.1099 12.8435 34.1184 12.8805 34.1296C13.0226 34.1671 13.1729 34.2009 13.3407 34.2281C13.8914 34.3162 14.4596 34.3968 15.0351 34.4681C15.0412 34.469 15.0454 34.4699 15.0515 34.4709V34.4699C15.4211 34.5177 15.7937 34.5618 16.1664 34.6002C16.1839 34.6021 16.2014 34.604 16.2189 34.604C16.539 34.6387 16.8581 34.6677 17.1762 34.6959C17.2081 34.6987 17.24 34.7015 17.2719 34.7043C17.9483 34.7606 18.6133 34.8018 19.2535 34.8234C19.3349 34.8252 19.4141 34.8271 19.4934 34.8299C19.7157 34.8374 19.934 34.8412 20.1491 34.8412C20.2006 34.8412 20.2562 34.8449 20.3076 34.8449C20.3756 34.8449 20.4404 34.8412 20.5094 34.8412C20.6134 34.8412 20.7173 34.8393 20.8193 34.8374C20.951 34.8356 21.0807 34.8299 21.2084 34.8243C21.3082 34.8206 21.407 34.8159 21.5038 34.8093C21.6284 34.8037 21.7478 34.7943 21.8672 34.7859C21.9598 34.7793 22.0535 34.7718 22.142 34.7643C22.2584 34.7531 22.3675 34.7409 22.4766 34.7259C22.561 34.7146 22.6464 34.7062 22.7267 34.694C22.8338 34.6781 22.9326 34.6602 23.0335 34.6396C23.1066 34.6256 23.1828 34.6124 23.2517 34.5974C23.3505 34.5768 23.4401 34.5506 23.5297 34.5262C23.5904 34.5084 23.6542 34.4934 23.7108 34.4746C23.8045 34.4456 23.8869 34.4109 23.9692 34.3762C24.0114 34.3584 24.0577 34.3452 24.0969 34.3265C24.2132 34.2721 24.3161 34.2149 24.4047 34.1484C24.4551 34.1128 24.5035 34.0631 24.5498 34.0096C24.5652 33.9937 24.5786 33.9712 24.593 33.9515C24.6239 33.9112 24.6558 33.8671 24.6826 33.8193C24.698 33.7921 24.7135 33.764 24.7279 33.7349C24.7546 33.6862 24.7824 33.6346 24.8061 33.5774C24.8205 33.5465 24.8319 33.5156 24.8483 33.4799C24.8741 33.4181 24.8977 33.3496 24.9214 33.2803C24.9327 33.2493 24.943 33.2203 24.9544 33.1856C25.0202 32.9746 25.081 32.7374 25.1335 32.4853C25.1417 32.4468 25.1489 32.4093 25.1551 32.3718C25.1736 32.2762 25.1921 32.1815 25.2096 32.0812C25.2179 32.0324 25.2251 31.9865 25.2313 31.9406C25.2477 31.8431 25.2611 31.7437 25.2745 31.6434C25.2807 31.5956 25.2879 31.5487 25.2941 31.5018C25.3105 31.3884 25.3229 31.274 25.3363 31.1587C25.3404 31.1203 25.3445 31.0856 25.3486 31.0471C25.3826 30.7274 25.4104 30.3993 25.431 30.0571C25.433 30.0271 25.4351 29.9981 25.4371 29.9662C25.4464 29.8284 25.4536 29.6878 25.4588 29.5481C25.4608 29.504 25.4629 29.459 25.4649 29.4149C25.4711 29.2818 25.4773 29.1524 25.4814 29.0193C25.4824 28.9753 25.4845 28.9321 25.4855 28.889C25.4896 28.7484 25.4938 28.6068 25.4958 28.4662C25.4958 28.4353 25.4968 28.4006 25.4979 28.3687C25.504 28.0199 25.5061 27.6731 25.5041 27.3328C25.5041 27.3224 25.5041 27.3131 25.5041 27.3018V27.3037C25.4886 25.3828 25.3568 23.6643 25.2107 23.0896C24.1339 22.3837 21.9207 22.7793 21.1065 22.7793C20.8759 22.8946 20.6494 23.7224 20.3396 24.7537C20.2829 24.9403 20.2232 25.1334 20.1615 25.3303C20.1604 25.3331 20.1594 25.3368 20.1584 25.3415C20.0946 25.5393 20.0297 25.7409 19.9607 25.9443C19.9607 25.9462 19.9607 25.9471 19.9607 25.9481C19.5366 27.1706 18.9715 28.4165 18.1418 29.0203C17.7774 29.2837 17.3636 29.429 16.8859 29.3887C13.9295 29.0137 10.5304 32.0924 11.8347 33.5615C11.8367 33.5596 11.8357 33.5596 11.8347 33.5615Z" fill="black" fill-opacity="0.4"/>
<path d="M17.3403 28.9875C18.4037 28.7493 19.1181 27.1856 19.6153 25.7278C18.7094 26.8284 17.6038 27.8025 16.5569 27.7406C15.3793 27.7584 15.3216 28.7672 17.3403 28.9875Z" fill="black" fill-opacity="0.4"/>
<path d="M13.2758 34.5964C12.4379 34.4624 11.9253 34.1933 11.6113 33.8877C11.0246 34.7324 10.4996 35.5143 10.1702 36.0121H9.19531V37.3583H13.9604V36.0121H13.8832L14.7973 34.8139C14.2898 34.7474 13.7823 34.6771 13.2758 34.5964Z" fill="black" fill-opacity="0.4"/>
</svg>
