<svg width="48" height="48" viewBox="0 0 48 48" fill="none" xmlns="http://www.w3.org/2000/svg">
<rect x="0.5" y="0.5" width="47" height="47" rx="23.5" stroke="black" stroke-opacity="0.4"/>
<g clip-path="url(#clip0_1185_1359)">
<path d="M28.6923 34.0388C28.6502 34.0405 28.5925 34.0296 28.5501 34.0296H26.9911V34.0296C26.8225 34.0296 26.6727 34.0279 26.5112 34.0022C26.4948 34.0783 26.5012 34.1692 26.5012 34.2503V35.156C26.5012 36.0617 25.7332 36.7745 24.8277 36.7745H14.4516C13.7971 36.7745 13.2646 36.242 13.2646 35.5875C13.2646 34.933 13.7971 34.4005 14.4516 34.4005H16.7018C18.4472 34.4005 19.8672 32.9925 19.8672 31.247C19.8672 31.125 19.8596 31.0114 19.8461 30.893C19.6664 29.3168 18.3252 28.0947 16.7018 28.0947H15.9405C15.3259 28.0947 14.8277 28.5929 14.8277 29.2075C14.8277 29.8221 15.3259 30.3203 15.9405 30.3203H16.7018C17.22 30.3203 17.6416 30.7294 17.6416 31.2477C17.6416 31.7659 17.2199 32.175 16.7018 32.175H14.4516C12.5699 32.175 11.0391 33.7059 11.0391 35.5875C11.0391 37.4692 12.57 39.0001 14.4516 39.0001H24.8276C26.9604 39.0001 28.7266 37.2889 28.7266 35.156V34.2503C28.7266 34.1821 28.704 34.1036 28.6923 34.0388Z" fill="black" fill-opacity="0.4"/>
<path d="M25.3125 21.5356V30.9083C25.3125 31.8244 26.0735 32.5457 26.9894 32.5457H28.5486C29.3221 32.5457 30.0043 32.0095 30.171 31.2542L32.2155 21.9561L25.3125 21.5356Z" fill="black" fill-opacity="0.4"/>
<path d="M13.3343 10.2265C12.2753 10.292 11.4375 11.1744 11.4375 12.2353V17.2989C11.4375 18.3599 12.2753 19.2423 13.3344 19.3078L14.4791 19.3781V10.1561L13.3343 10.2265Z" fill="black" fill-opacity="0.4"/>
<path d="M35.8013 9.9941C35.1143 9.34828 34.2296 9 33.2964 9C33.2189 9 33.1389 9.0024 33.0607 9.00727L15.9688 10.0644V19.4699L33.0586 20.5271C34.0779 20.5906 35.0572 20.2396 35.8012 19.5402C36.5452 18.8408 36.9634 17.8932 36.9634 16.8721V12.6623C36.9634 11.6411 36.5453 10.6935 35.8013 9.9941Z" fill="black" fill-opacity="0.4"/>
</g>
<defs>
<clipPath id="clip0_1185_1359">
<rect width="30" height="30" fill="white" transform="translate(9 9)"/>
</clipPath>
</defs>
</svg>
